<svg width="60" height="60" viewBox="0 0 60 60" fill="none" xmlns="http://www.w3.org/2000/svg">
<path d="M30.0998 36.2469C28.5898 36.2469 27.2798 34.9369 27.2798 33.4269C27.2798 31.9169 28.5898 30.6069 30.0998 30.6069C31.6098 30.6069 32.9198 31.9169 32.9198 33.4269C32.9198 34.9369 31.6098 36.2469 30.0998 36.2469ZM30.0998 33.1169C29.8998 33.1169 29.7998 33.2169 29.7998 33.4169C29.7998 33.6169 29.8998 33.7169 30.0998 33.7169C30.2998 33.7169 30.3998 33.6169 30.3998 33.4169C30.3998 33.2169 30.2998 33.1169 30.0998 33.1169Z" fill="#FBF9FF"/>
<path d="M30.0998 37.7569C29.3898 37.7569 28.7898 37.1569 28.7898 36.4469V34.8369C28.7898 34.1269 29.3898 33.5269 30.0998 33.5269C30.8098 33.5269 31.4098 34.1269 31.4098 34.8369V36.4469C31.4098 37.2569 30.8098 37.7569 30.0998 37.7569Z" fill="#FBF9FF"/>
<path d="M35.8498 27.3765H24.3598C23.6498 27.3765 23.0498 26.7765 23.0498 26.0665V24.4565C23.0498 20.6265 26.1798 17.3965 30.1098 17.3965C31.7198 17.3965 33.3398 17.9965 34.6498 19.0065C36.2598 20.3165 37.1698 22.3365 37.1698 24.3465V26.0565C37.1698 26.7665 36.5598 27.3665 35.8598 27.3665L35.8498 27.3765ZM25.5698 24.8565H34.6398V24.5565C34.6398 23.2465 34.0398 21.9365 33.0298 21.1265C32.2198 20.4165 31.2198 20.1165 30.1098 20.1165C27.5898 20.0165 25.5698 22.0365 25.5698 24.5565V24.8565Z" fill="#FBF9FF"/>
<path d="M30.0998 41.4866C24.7598 41.4866 20.5198 37.1466 20.5198 31.9066V26.0566C20.5198 25.3466 21.1198 24.7466 21.8298 24.7466H38.5698C39.2798 24.7466 39.8798 25.3466 39.8798 26.0566V31.8066C39.8798 35.5366 37.8598 38.7666 34.5398 40.4766C33.0298 41.0766 31.6198 41.4866 30.0998 41.4866ZM23.0398 27.3666V31.9066C23.0398 35.8366 26.2698 38.9666 30.0998 38.9666C31.2098 38.9666 32.2198 38.7666 33.2298 38.2566C35.6498 37.0466 37.1598 34.6266 37.1598 31.9066V27.3666H23.0398Z" fill="#FBF9FF"/>
<path d="M35.8499 57.8267H24.3599C24.0599 57.8267 23.6499 57.7267 23.4499 57.4267C22.4399 56.4167 21.4299 55.4067 20.5299 54.5067C13.4699 47.3467 9.93992 43.8167 8.12992 38.3767C6.41992 33.1367 6.41992 26.2767 6.41992 12.7667V7.9267C6.41992 7.5267 6.61992 7.2167 6.91992 6.9167C7.21992 6.7167 7.62992 6.6167 7.92992 6.6167C15.7899 8.0267 22.9499 6.6167 29.4099 2.3867C29.9099 2.0867 30.5199 2.0867 30.9199 2.4867C35.8599 6.6167 42.8199 7.9267 52.2899 6.6167C52.6899 6.5167 52.9999 6.7167 53.2999 6.9167C53.5999 7.1167 53.6999 7.5167 53.6999 7.8267V14.3767C53.6999 26.9767 53.7999 33.3267 52.0899 38.2667C50.3799 43.3067 47.1499 46.6367 40.6999 53.2867C39.4899 54.4967 38.1799 55.9067 36.7699 57.4167C36.5699 57.7167 36.2699 57.8167 35.8599 57.8167L35.8499 57.8267ZM24.9599 55.3067H35.3399C36.6499 53.9967 37.8599 52.6867 38.9699 51.5767C45.2199 45.1267 48.3499 41.9967 49.7599 37.4567C51.2699 32.9167 51.2699 26.6667 51.2699 14.3667V9.2267C47.0399 9.7267 43.0999 9.6267 39.7799 9.0267C36.0499 8.3167 32.8199 6.9067 30.0999 4.8967C25.0599 8.0267 19.6099 9.6367 13.8699 9.6367C12.2599 9.6367 10.6399 9.5367 9.02992 9.3367V12.7667C9.02992 26.0767 9.02992 32.7267 10.6399 37.6667C12.2499 42.5067 15.6799 45.9367 22.4399 52.7867C23.1499 53.4967 24.0499 54.3967 24.9599 55.3067Z" fill="#FBF9FF"/>
<path d="M34.3398 50.2665C34.0398 50.2665 33.7398 50.1665 33.4298 49.9665C32.9298 49.4665 32.9298 48.6565 33.4298 48.1565C34.2398 47.2465 35.0398 46.4465 35.7498 45.7365C40.2898 40.9965 42.6098 38.6765 43.6098 35.5565C44.7198 32.3265 44.7198 28.0965 44.6198 19.6265V15.5965C38.3698 16.3065 33.5298 15.2965 29.8998 12.5765C25.0598 15.4965 19.6198 16.5065 13.7698 15.3965C13.0598 15.2965 12.6598 14.5865 12.7598 13.8865C12.8598 13.1765 13.5698 12.7765 14.2698 12.8765C19.7098 13.8865 24.7598 12.8765 29.2898 9.95652C29.7898 9.65652 30.3998 9.65652 30.7998 10.0565C34.2298 12.8765 39.0698 13.8865 45.7198 12.8765C46.1198 12.7765 46.4298 12.9765 46.7298 13.1765C47.0298 13.3765 47.1298 13.7865 47.1298 14.0865V19.5265C47.2298 37.1665 47.1298 37.4765 37.4498 47.4565C36.7398 48.1665 35.9398 48.9665 35.1298 49.8765C35.0298 50.1765 34.7298 50.2765 34.3198 50.2765L34.3398 50.2665Z" fill="#FBF9FF"/>
<path d="M55.8099 57.8265H4.18988C3.47988 57.8265 2.87988 57.2265 2.87988 56.5165C2.87988 55.8065 3.47988 55.2065 4.18988 55.2065H55.8099C56.5199 55.2065 57.1199 55.8065 57.1199 56.5165C57.1199 57.2265 56.5199 57.8265 55.8099 57.8265Z" fill="#FBF9FF"/>
<path d="M49.5599 52.7865H40.6899C39.9799 52.7865 39.3799 52.1865 39.3799 51.4765C39.3799 50.7665 39.9799 50.1665 40.6899 50.1665H49.5599C50.2699 50.1665 50.8699 50.7665 50.8699 51.4765C50.7699 52.1865 50.1599 52.7865 49.5599 52.7865Z" fill="#FBF9FF"/>
<path d="M19.3099 52.7865H10.4399C9.72988 52.7865 9.12988 52.1865 9.12988 51.4765C9.12988 50.7665 9.72988 50.1665 10.4399 50.1665H19.3099C20.0199 50.1665 20.6199 50.7665 20.6199 51.4765C20.5199 52.1865 19.9099 52.7865 19.3099 52.7865Z" fill="#FBF9FF"/>
</svg>
