<svg width="200" height="218" viewBox="0 0 200 218" fill="none" xmlns="http://www.w3.org/2000/svg">
<path d="M11.1058 60.2292C8.62039 63.1958 -3.64728 72.154 5.29081 64.3931C18.2955 53.1013 33.0199 43.9674 47.0943 34.3878C61.9348 24.2866 76.6338 13.6948 91.8288 4.22549C98.2683 0.21257 96.0978 4.1501 92.7735 8.15902C78.3277 25.58 61.8425 40.9209 47.3505 58.3687C34.5196 73.8167 18.0483 91.7471 10.7853 111.566C6.51998 123.206 29.3476 101.786 30.1066 101.04C42.3578 89.0111 53.3299 75.5454 64.5749 62.4282C65.7414 61.0675 90.4274 33.2722 91.4017 35.6199C92.5473 38.3801 89.7756 41.4115 88.4252 44.0236C82.9114 54.689 76.2069 64.6288 69.8009 74.6463C59.952 90.0476 45.8149 107.188 41.2068 125.821C40.5849 128.336 40.0157 130.959 43.3219 129.283C50.6297 125.577 57.2956 117.175 62.9172 111.225C75.276 98.144 85.8521 83.1026 98.3787 70.2508C107.798 60.5867 103.308 74.8335 101.39 80.1366C94.7066 98.6207 84.8565 115.83 79.8797 135.058C78.261 141.312 76.8803 152.328 85.9861 146.483C98.8413 138.231 107.922 122.448 116.851 109.88C117.764 108.594 130.247 89.1675 124.874 102.244C117.481 120.234 109.546 137.88 104.001 156.731C102.174 162.941 99.7399 172.685 98.7231 179.344C98.502 180.792 97.4731 188.363 98.7217 190.758C101.823 196.707 117.325 171.001 117.829 170.199C126.16 156.948 133.229 141.835 142.938 129.707C143.795 128.637 144.97 127.594 144.385 129.995C142.525 137.634 138.78 145.228 135.927 152.393C129.878 167.582 123.221 182.807 119.034 198.796C118.48 200.909 113.855 222.928 121.779 213.139C131.217 201.48 136.853 186.252 143.779 172.817C145.39 169.692 156.506 144.226 161.806 145.748C166.741 147.165 161.082 172.52 160.73 174.895C160.443 176.835 154.567 203.677 158.365 204.718C162.382 205.819 171.933 180.925 172.99 178.718C181.59 160.762 189.725 142.665 197.753 124.397" stroke="#FFA800" stroke-width="4" stroke-linecap="round"/>
</svg>
