<svg width="344" height="345" viewBox="0 0 344 345" fill="none" xmlns="http://www.w3.org/2000/svg">
<path d="M62.9551 13.2375C77.58 -2.95982 260.111 -1.64284 276.546 3.32104C292.597 8.17237 308.212 19.8448 320.219 39.1713C331.757 57.7437 340.007 172.142 341.818 199.404C343.602 226.272 338.334 253.77 327.688 273.592C324.679 279.197 321.248 284.15 317.484 288.18C315.459 290.341 313.343 292.232 311.148 293.808C310.093 294.562 309.019 295.327 307.925 295.89C306.134 296.802 304.923 296.048 305.333 299.953C307.183 317.423 313.401 332.731 322.094 342.073C322.771 342.805 322.433 344.369 321.71 344.505C312.633 346.193 303.491 343.559 295.247 336.715C291.601 333.688 288.176 329.849 285.096 325.313C281.137 319.483 277.868 312.481 272.815 309.363C268.784 306.876 102.298 306.381 98.0912 305.334C92.8625 304.028 87.6598 302.373 82.5092 300.37C72.7288 296.565 63.1634 291.444 53.7933 285.309C39.2727 275.809 24.0357 264.204 13.9624 242.953C3.73275 221.375 2.52162 103.274 8.36897 77.8017C21.7436 19.5071 60.4416 4.87433 93.0318 5.53843C110.593 5.89863 290.806 9.37675 306.812 22.6813C322.231 35.5131 334.499 57.1021 339.597 85.6585C342.671 102.846 343.914 211.099 343.999 229.052C344.071 244.709 340.528 257.485 333.6 267.502C329.83 272.95 325.552 277.261 321.287 281.415C316.82 285.76 311.552 289.632 307.762 295.71C302.501 304.141 308.882 315.295 312.333 322.105C315.752 328.836 319.385 335.05 323.442 340.644C323.982 341.387 323.507 342.861 322.908 342.872C312.757 343.12 302.566 340.036 293.196 333.192C284.112 326.563 276.5 315.318 267.56 308.227C257.747 300.437 84.5668 298.321 74.1419 294.078C64.0816 289.992 54.0733 285.163 44.56 278.094C28.5091 266.163 13.1419 246.983 5.22393 219.327C-2.27082 193.145 -2.28389 69.7537 9.0136 46.6565C20.6302 22.8951 41.2587 17.2221 57.9998 12.2245C58.9505 11.9431 59.3607 14.4532 58.4035 14.7458C43.5833 19.1694 26.3082 23.9194 14.4052 41.096C0.112385 61.7282 -1.54157 187.495 5.83599 215.5C13.1484 243.28 28.151 262.64 43.9088 274.785C52.9533 281.752 62.5122 286.536 72.1168 290.566C81.591 294.539 253.547 296.79 262.794 302.205C272.281 307.754 280.056 318.469 288.781 326.608C299.187 336.321 311.142 340.554 322.915 340.272C322.739 341.015 322.556 341.758 322.381 342.501C316.169 333.935 309.566 323.152 305.626 311.052C302.065 300.1 305.959 293.954 311.331 288.258C318.93 280.222 327.421 273.986 334.023 263.428C341.414 251.609 342.964 237.415 342.267 220.61C340.945 188.823 337.644 68.8983 323.8 45.9362C310.745 24.2797 293.059 14.1155 275.413 10.3335C242.673 3.32104 41.9993 -18.5724 16.4889 57.8224C6.81273 80.7958 2.68441 201.632 10.1531 228.05C17.3744 253.59 33.23 268.121 47.7897 278.454C56.8993 284.927 66.2238 290.51 75.7502 294.854C85.9602 299.503 258.437 301.439 268.765 304.872C272.997 306.279 276.722 308.947 280.049 313.753C283.832 319.212 287.075 325.381 291.295 329.962C300.378 339.833 311.103 343.908 321.742 341.927C321.612 342.737 321.489 343.548 321.358 344.358C315.049 337.582 309.989 327.936 306.825 316.297C305.399 311.063 304.07 305.041 303.712 299.256C303.445 295.001 304.5 294.877 306.655 293.796C323.533 285.354 335.827 258.07 339.512 229.097C343.152 200.451 337.956 81.5838 328.072 58.3065C317.888 34.3313 302.898 18.1564 286.489 9.97333C276.631 5.05447 104.173 2.88203 93.9174 3.09589C83.4729 3.30975 72.7224 5.58346 63.7495 15.5225C62.929 16.4342 62.1672 14.1718 62.9877 13.2713L62.9551 13.2375Z" fill="#FFA800"/>
</svg>
