<svg width="344" height="220" viewBox="0 0 344 220" fill="none" xmlns="http://www.w3.org/2000/svg">
<path d="M62.9551 8.4413C77.58 -1.88744 260.111 -1.04761 276.546 2.11776C292.597 5.21136 308.212 12.6547 320.219 24.9788C331.757 36.822 340.007 109.772 341.818 127.156C343.602 144.289 338.334 161.824 327.688 174.464C324.679 178.039 321.248 181.197 317.484 183.767C315.459 185.145 313.343 186.351 311.148 187.356C310.093 187.836 309.019 188.325 307.925 188.683C306.134 189.265 304.923 188.784 305.333 191.275C307.183 202.414 313.401 212.176 322.094 218.134C322.771 218.6 322.433 219.598 321.71 219.684C312.633 220.761 303.491 219.081 295.247 214.717C291.601 212.786 288.176 210.339 285.096 207.446C281.137 203.728 277.868 199.263 272.815 197.275C268.784 195.689 102.298 195.373 98.0912 194.706C92.8625 193.873 87.6598 192.818 82.5092 191.54C72.7288 189.114 63.1635 185.848 53.7934 181.936C39.2727 175.878 24.0357 168.478 13.9624 154.927C3.73276 141.167 2.52163 65.8559 8.36898 49.6127C21.7437 12.4393 60.4416 3.10825 93.0318 3.53174C110.593 3.76143 290.806 5.97937 306.812 14.4634C322.231 22.646 334.499 36.4129 339.597 54.6228C342.671 65.5832 343.914 134.614 343.999 146.062C344.071 156.046 340.528 164.193 333.6 170.581C329.83 174.055 325.552 176.804 321.287 179.453C316.82 182.224 311.552 184.693 307.762 188.569C302.501 193.945 308.882 201.058 312.333 205.4C315.752 209.693 319.385 213.655 323.442 217.222C323.982 217.696 323.507 218.636 322.908 218.643C312.757 218.801 302.566 216.834 293.196 212.47C284.112 208.243 276.5 201.072 267.56 196.55C257.747 191.583 84.5668 190.234 74.1419 187.528C64.0816 184.922 54.0733 181.843 44.56 177.335C28.5091 169.727 13.1419 157.496 5.22394 139.861C-2.2708 123.165 -2.28388 44.4806 9.01361 29.7519C20.6302 14.5998 41.2587 10.9822 57.9998 7.7953C58.9505 7.61586 59.3607 9.21649 58.4035 9.40311C43.5833 12.224 26.3082 15.2529 14.4052 26.2061C0.112389 39.3629 -1.54156 119.562 5.83601 137.42C13.1484 155.135 28.151 167.48 43.9088 175.225C52.9533 179.668 62.5123 182.719 72.1168 185.288C81.591 187.822 253.547 189.258 262.794 192.71C272.281 196.249 280.056 203.082 288.781 208.271C299.187 214.466 311.142 217.165 322.915 216.985C322.739 217.459 322.556 217.933 322.381 218.406C316.169 212.944 309.566 206.068 305.626 198.352C302.065 191.368 305.959 187.449 311.331 183.817C318.93 178.692 327.421 174.716 334.023 167.983C341.414 160.446 342.964 151.395 342.267 140.679C340.945 120.409 337.644 43.9352 323.8 29.2926C310.745 15.4827 293.059 9.0012 275.413 6.58948C242.673 2.11776 41.9993 -11.8433 16.4889 36.8722C6.81274 51.522 2.68443 128.577 10.1531 145.423C17.3744 161.71 33.23 170.976 47.7897 177.565C56.8994 181.692 66.2238 185.252 75.7502 188.023C85.9603 190.987 258.437 192.222 268.765 194.411C272.997 195.308 276.722 197.01 280.049 200.074C283.832 203.556 287.075 207.489 291.295 210.41C300.378 216.705 311.103 219.304 321.743 218.04C321.612 218.557 321.489 219.074 321.358 219.591C315.049 215.27 309.989 209.118 306.825 201.697C305.399 198.359 304.07 194.519 303.712 190.83C303.445 188.116 304.5 188.037 306.655 187.348C323.533 181.965 335.827 164.566 339.512 146.091C343.152 127.824 337.956 52.0245 328.072 37.1809C317.888 21.8924 302.898 11.578 286.489 6.3598C276.631 3.22313 104.173 1.8378 93.9174 1.97418C83.4729 2.11055 72.7224 3.56045 63.7495 9.89837C62.929 10.4798 62.1672 9.03705 62.9877 8.46283L62.9551 8.4413Z" fill="#FFA800"/>
</svg>
