<svg width="344" height="234" viewBox="0 0 344 234" fill="none" xmlns="http://www.w3.org/2000/svg">
<path d="M62.9551 8.97848C77.58 -2.00754 260.111 -1.11428 276.546 2.25253C292.597 5.543 308.212 13.46 320.219 26.5684C331.757 39.1653 340.007 116.757 341.818 135.248C343.602 153.471 338.334 172.122 327.688 185.567C324.679 189.369 321.248 192.728 317.484 195.461C315.459 196.927 313.343 198.209 311.148 199.278C310.093 199.79 309.019 200.309 307.925 200.691C306.134 201.309 304.923 200.798 305.333 203.447C307.183 215.295 313.401 225.678 322.094 232.015C322.771 232.511 322.433 233.572 321.71 233.664C312.633 234.809 303.491 233.023 295.247 228.381C291.601 226.327 288.176 223.724 285.096 220.647C281.137 216.693 277.868 211.944 272.815 209.829C268.784 208.142 102.298 207.806 98.0912 207.096C92.8625 206.21 87.6598 205.088 82.5092 203.729C72.7288 201.149 63.1634 197.675 53.7933 193.514C39.2726 187.071 24.0356 179.2 13.9623 164.786C3.73273 150.15 2.52159 70.0467 8.36895 52.7699C21.7436 13.2309 60.4416 3.30605 93.0318 3.75649C110.593 4.0008 290.806 6.35988 306.812 15.3838C322.231 24.0872 334.499 38.7301 339.597 58.0988C342.671 69.7567 343.914 143.18 343.999 155.357C344.071 165.977 340.528 174.642 333.6 181.436C329.83 185.132 325.552 188.056 321.287 190.873C316.82 193.82 311.552 196.446 307.762 200.568C302.501 206.287 308.882 213.852 312.333 218.471C315.752 223.037 319.385 227.251 323.442 231.045C323.982 231.549 323.507 232.549 322.908 232.557C312.757 232.725 302.566 230.633 293.196 225.991C284.112 221.495 276.5 213.868 267.56 209.058C257.747 203.775 84.5668 202.34 74.1418 199.461C64.0815 196.69 54.0733 193.415 44.56 188.62C28.5091 180.528 13.1419 167.519 5.22391 148.761C-2.27087 131.003 -2.28391 47.3112 9.01357 31.6453C20.6302 15.5289 41.2587 11.6811 57.9998 8.29137C58.9505 8.10051 59.3607 9.803 58.4035 10.0015C43.5833 13.0018 26.3082 16.2236 14.4051 27.8738C0.112328 41.8678 -1.54159 127.171 5.83597 146.165C13.1484 165.007 28.1509 178.138 43.9088 186.376C52.9533 191.102 62.5122 194.346 72.1168 197.079C81.591 199.774 253.547 201.301 262.794 204.974C272.281 208.737 280.056 216.005 288.781 221.525C299.187 228.114 311.142 230.984 322.915 230.793C322.739 231.297 322.556 231.801 322.381 232.305C316.169 226.495 309.566 219.181 305.626 210.974C302.065 203.546 305.959 199.377 311.331 195.514C318.93 190.063 327.421 185.834 334.023 178.673C341.414 170.657 342.964 161.03 342.267 149.631C340.945 128.071 337.644 46.7311 323.8 31.1567C310.745 16.468 293.059 9.57401 275.413 7.00882C242.673 2.25253 41.9993 -12.597 16.4888 39.2187C6.8127 54.8006 2.68436 136.759 10.1531 154.678C17.3744 172 33.2299 181.856 47.7897 188.865C56.8993 193.255 66.2238 197.041 75.7501 199.988C85.9602 203.141 258.437 204.454 268.765 206.783C272.997 207.737 276.722 209.547 280.049 212.807C283.832 216.509 287.075 220.693 291.295 223.8C300.378 230.496 311.103 233.259 321.743 231.916C321.612 232.465 321.489 233.015 321.358 233.565C315.049 228.969 309.989 222.426 306.825 214.532C305.399 210.982 304.07 206.897 303.712 202.973C303.445 200.088 304.5 200.004 306.655 199.271C323.533 193.545 335.827 175.039 339.512 155.388C343.152 135.958 337.956 55.3351 328.072 39.547C317.888 23.2855 302.898 12.3148 286.489 6.76451C276.631 3.42824 104.173 1.95476 93.9174 2.09981C83.4729 2.24486 72.7224 3.78703 63.7494 10.5283C62.929 11.1467 62.1672 9.61214 62.9876 9.00138L62.9551 8.97848Z" fill="#FFA800"/>
</svg>
