<svg width="442" height="197" viewBox="0 0 442 197" fill="none" xmlns="http://www.w3.org/2000/svg">
<path d="M80.89 9.84076C99.6812 -2.20028 334.212 -1.22127 355.33 2.46886C375.953 6.07531 396.016 14.7526 411.444 29.1198C426.27 42.9264 436.87 68.4979 439.196 88.7644C441.488 108.738 434.72 129.18 421.04 143.915C417.175 148.083 412.766 151.764 407.93 154.76C405.328 156.367 402.609 157.772 399.789 158.944C398.434 159.504 397.054 160.073 395.648 160.492C393.347 161.17 391.791 160.609 392.318 163.513C394.694 176.499 402.684 187.879 413.854 194.824C414.724 195.368 414.289 196.531 413.36 196.632C401.697 197.887 389.95 195.929 379.358 190.841C374.673 188.59 370.272 185.737 366.315 182.365C361.228 178.03 357.028 172.826 350.536 170.508C345.357 168.659 131.441 168.29 126.036 167.512C119.318 166.542 112.633 165.312 106.015 163.822C93.4482 160.994 81.1577 157.187 69.1183 152.626C50.4608 145.564 30.8831 136.937 17.94 121.139C4.79617 105.098 3.23999 76.7735 10.7531 57.8376C27.938 14.5015 77.6605 3.6236 119.535 4.11729C142.1 4.38505 373.652 6.97065 394.217 16.8612C414.029 26.4003 429.792 42.4495 436.343 63.6782C440.292 76.4556 441.89 97.4583 441.999 110.805C442.091 122.444 437.539 131.941 428.637 139.389C423.793 143.439 418.296 146.643 412.816 149.731C407.077 152.961 400.308 155.839 395.439 160.358C388.679 166.625 396.878 174.918 401.312 179.98C405.705 184.984 410.373 189.603 415.585 193.762C416.28 194.314 415.669 195.41 414.899 195.418C401.856 195.602 388.762 193.31 376.723 188.222C365.051 183.294 355.271 174.934 343.784 169.663C331.175 163.872 108.659 162.299 95.2637 159.145C82.3374 156.107 69.478 152.517 57.2545 147.263C36.6309 138.393 16.8859 124.134 6.71216 103.575C-2.91776 84.112 -2.93454 51.8547 11.5814 34.6843C26.5074 17.0202 53.0126 12.8029 74.523 9.08767C75.7445 8.87848 76.2716 10.7445 75.0417 10.962C55.9995 14.2505 33.803 17.7817 18.5089 30.5507C0.144348 45.8886 -1.98068 79.9114 7.4986 100.73C16.8943 121.381 36.1707 135.774 56.4178 144.802C68.0389 149.982 80.321 153.538 92.6617 156.534C104.835 159.488 325.779 161.161 337.659 165.186C349.849 169.311 359.839 177.277 371.05 183.327C384.42 190.548 399.781 193.695 414.908 193.485C414.682 194.038 414.448 194.59 414.222 195.142C406.24 188.774 397.756 180.758 392.695 171.763C388.118 163.621 393.121 159.053 400.024 154.819C409.787 148.844 420.697 144.208 429.181 136.36C438.677 127.573 440.668 117.022 439.773 104.529C438.075 80.8988 433.833 51.2188 416.046 34.1488C399.271 18.0494 376.547 10.4934 353.874 7.6819C311.807 2.46886 53.9643 -13.8066 21.1863 42.985C8.75357 60.0634 3.44916 90.4211 13.0456 110.06C22.3241 129.046 42.6967 139.849 61.4043 147.53C73.1091 152.342 85.09 156.492 97.3302 159.722C110.449 163.178 332.062 164.617 345.332 167.169C350.77 168.215 355.555 170.198 359.831 173.771C364.692 177.83 368.858 182.415 374.28 185.821C385.951 193.159 399.731 196.188 413.402 194.715C413.234 195.318 413.075 195.92 412.908 196.523C404.801 191.486 398.3 184.314 394.234 175.662C392.402 171.771 390.695 167.295 390.235 162.994C389.892 159.831 391.247 159.739 394.016 158.935C415.703 152.66 431.499 132.377 436.234 110.838C440.911 89.5425 434.234 60.6491 421.534 43.3448C408.449 25.5217 389.189 13.4974 368.105 7.41414C355.438 3.75748 133.85 2.14252 120.673 2.30151C107.253 2.46049 93.4398 4.15076 81.9107 11.5394C80.8565 12.2172 79.8776 10.5353 80.9318 9.86586L80.89 9.84076Z" fill="#FFA800"/>
</svg>
